<?xml version="1.0" ?><!DOCTYPE svg  PUBLIC '-//W3C//DTD SVG 1.1//EN'  'http://www.w3.org/Graphics/SVG/1.1/DTD/svg11.dtd'><svg enable-background="new 0 0 128 128" height="128px" id="Layer_1" version="1.1" viewBox="0 0 128 128" width="128px" xml:space="preserve" xmlns="http://www.w3.org/2000/svg" xmlns:xlink="http://www.w3.org/1999/xlink"><g><path d="M82.02,54h-1.621V41.9c0-6.562-5.338-11.9-11.899-11.9h-9.001C52.938,30,47.6,35.338,47.6,41.9V54h-1.619   c-3.29,0-5.979,2.696-5.979,5.991V84.01c0,3.295,2.689,5.99,5.979,5.99h36.036c3.288,0,5.978-2.695,5.978-5.99h0.002V59.991   C87.997,56.696,85.308,54,82.02,54z M66.499,71.327v9.425c0,0.686-0.562,1.248-1.25,1.248h-2.5c-0.688,0-1.25-0.562-1.25-1.248   v-9.425C60.006,70.461,59,68.85,59,67c0-2.76,2.239-5,5-5c2.763,0,4.999,2.24,4.999,5C68.998,68.85,67.991,70.461,66.499,71.327z    M72.399,54h-16.8V41.9c0-2.15,1.749-3.9,3.898-3.9h9.001c2.15,0,3.9,1.75,3.9,3.9V54z"/></g><g><path d="M64,128c-0.078,0-0.156-0.002-0.234-0.007c-0.864-0.051-21.33-1.463-37.58-20.62C10.271,88.611,4.212,60.019,8.178,22.391   c0.161-1.522,1.175-2.819,2.613-3.341L62.636,0.24c0.882-0.319,1.848-0.319,2.729,0l51.845,18.81   c1.438,0.522,2.453,1.819,2.613,3.341c3.966,37.628-2.093,66.221-18.008,84.982c-16.251,19.157-36.717,20.569-37.58,20.62   C64.156,127.998,64.078,128,64,128z M15.885,25.712c-3.218,34.131,2.295,59.857,16.4,76.485   C45.444,117.71,61.8,119.776,63.99,119.986c2.175-0.221,18.753-2.389,31.849-17.936c14.014-16.636,19.485-42.312,16.277-76.339   L64,8.255L15.885,25.712z"/></g></svg>