<?xml version="1.0" ?><!DOCTYPE svg  PUBLIC '-//W3C//DTD SVG 1.1//EN'  'http://www.w3.org/Graphics/SVG/1.1/DTD/svg11.dtd'><svg enable-background="new 0 0 128 128" height="40px" id="Layer_1" version="1.1" viewBox="0 0 128 128" width="40px" xml:space="preserve" xmlns="http://www.w3.org/2000/svg" xmlns:xlink="http://www.w3.org/1999/xlink"><g><path d="M119.829,22.391c-0.16-1.522-1.175-2.819-2.613-3.341L65.364,0.24c-0.881-0.319-1.847-0.319-2.729,0L10.784,19.05   c-1.438,0.522-2.453,1.819-2.614,3.341c-3.966,37.628,2.094,66.221,18.011,84.982c16.253,19.157,36.722,20.569,37.585,20.62   C63.844,127.998,63.922,128,64,128s0.156-0.002,0.234-0.007c0.863-0.051,21.332-1.463,37.585-20.62   C117.736,88.611,123.796,60.019,119.829,22.391z M95.843,102.051c-13.097,15.547-29.678,17.715-31.853,17.936   c-2.19-0.21-18.549-2.276-31.709-17.789C18.174,85.569,12.659,59.843,15.878,25.712L64,8.255l48.122,17.457   C115.331,59.739,109.858,85.415,95.843,102.051z"/><path d="M90.205,65.566c-0.449-0.442-1.042-0.709-1.673-0.754L81,64.284v-0.077h-0.002c-0.008-1.853-0.314-3.92-0.871-5.951   l9.145-3.638c0.625-0.25,1.131-0.725,1.42-1.333l4.192-8.871c0.63-1.326,0.062-2.909-1.265-3.537   c-1.327-0.628-2.91-0.061-3.536,1.266l-3.751,7.925l-8.141,3.239c-0.608-1.139-1.305-2.174-2.074-3.035   c-0.277-0.309-0.965-0.859-1.368-0.859h-1.087h-6.477c-0.582,0-1.062,0.479-1.062,1.062v41.283c0,0,0,0.239,0,0.715   c0,0.479,0.712,0.25,1.062,0.184c5.463-1.037,9.996-4.688,12.258-9.598l5.106,2.446c0,0,4.031,8.14,4.151,8.319   C89.216,94.587,90.057,95,90.909,95c0.511-0.001,1.024-0.146,1.479-0.452c1.184-0.793,1.521-2.373,0.793-3.578   c-0.396-0.723-4.265-8.629-4.265-8.629s-0.699-0.97-1.24-1.229l-6.794-3.257C80.952,77.23,81,76.602,81,75.959v-6.352l6.182,0.436   l6.301,6.186c0.518,0.506,1.19,0.763,1.861,0.763c0.688,0,1.376-0.267,1.896-0.796c1.028-1.049,1.012-2.731-0.034-3.758   L90.205,65.566z"/><path d="M74.625,44.103l0.002-5.871c0-1.753-1.195-3.983-2.652-4.956l-5.322-3.546c-1.459-0.972-3.845-0.972-5.304,0l-5.321,3.546   c-1.458,0.973-2.652,3.203-2.652,4.956v5.871c0,0.585,0.478,1.062,1.063,1.062h19.124C74.146,45.165,74.625,44.688,74.625,44.103z"/><path d="M60.812,49.414h-6.476h-0.962c-0.588,0-1.272,0.609-1.576,0.953c-0.697,0.797-1.331,1.738-1.895,2.766l-7.706-3.065   l-3.75-7.927c-0.627-1.326-2.212-1.892-3.537-1.264c-1.327,0.626-1.892,2.21-1.265,3.536l4.197,8.871   c0.287,0.609,0.795,1.083,1.419,1.333l8.66,3.446c-0.588,2.091-0.915,4.231-0.922,6.142H47v0.08l-7.531,0.527   c-0.631,0.045-1.224,0.312-1.676,0.754l-6.998,6.871c-1.046,1.026-1.062,2.711-0.035,3.758c0.521,0.529,1.208,0.796,1.896,0.796   c0.672,0,1.344-0.254,1.862-0.761l6.3-6.187L47,69.609v6.348c0,0.645,0.048,1.273,0.117,1.896l-6.797,3.256   c-0.538,0.262-1.237,1.229-1.237,1.229s-3.872,7.91-4.265,8.631c-0.73,1.205-0.388,2.785,0.795,3.58   C36.067,94.854,36.581,95,37.09,95c0.855-0.001,1.696-0.413,2.21-1.18c0.12-0.183,4.148-8.318,4.148-8.318l5.106-2.445   c2.263,4.91,6.794,8.562,12.257,9.599c0.351,0.064,1.062,0.212,1.062-0.224c0-0.438,0-0.672,0-0.672V50.477   C61.875,49.892,61.398,49.414,60.812,49.414z"/></g></svg>