<?xml version="1.0" ?><!DOCTYPE svg  PUBLIC '-//W3C//DTD SVG 1.1//EN'  'http://www.w3.org/Graphics/SVG/1.1/DTD/svg11.dtd'><svg enable-background="new 0 0 128 128" height="35px" id="Layer_1" version="1.1" viewBox="0 0 128 128" width="35px" xml:space="preserve" xmlns="http://www.w3.org/2000/svg" xmlns:xlink="http://www.w3.org/1999/xlink"><g><path d="M126.833,118.35c1.556,1.555,1.556,4.102,0,5.655l-2.828,2.828c-1.556,1.556-4.101,1.556-5.655,0L34.152,42.637   c-1.556-1.556-1.556-4.102,0-5.657l2.828-2.828c1.555-1.556,4.101-1.556,5.657,0L126.833,118.35z"/></g><g><g><path d="M40,20c-2.209,0-4-1.791-4-4V4c0-2.209,1.791-4,4-4s4,1.791,4,4v12C44,18.209,42.209,20,40,20z"/></g><g><path d="M40,80c-2.209,0-4-1.791-4-4V64c0-2.209,1.791-4,4-4s4,1.791,4,4v12C44,78.209,42.209,80,40,80z"/></g></g><g><g><path d="M76,44H64c-2.209,0-4-1.791-4-4s1.791-4,4-4h12c2.209,0,4,1.791,4,4S78.209,44,76,44z"/></g><g><path d="M16,44H4c-2.209,0-4-1.791-4-4s1.791-4,4-4h12c2.209,0,4,1.791,4,4S18.209,44,16,44z"/></g></g><g><g><path d="M56.971,27.029c-1.024,0-2.047-0.391-2.828-1.171c-1.562-1.562-1.562-4.095,0-5.657l8.484-8.485    c1.562-1.562,4.094-1.562,5.657,0s1.562,4.095,0,5.657L59.8,25.857C59.019,26.638,57.995,27.029,56.971,27.029z"/></g><g><path d="M14.544,69.456c-1.024,0-2.047-0.391-2.829-1.172c-1.562-1.562-1.562-4.094,0-5.657l8.485-8.485    c1.562-1.562,4.095-1.562,5.657,0c1.562,1.562,1.562,4.095,0,5.657l-8.485,8.484C16.591,69.065,15.568,69.456,14.544,69.456z"/></g></g><g><g><path d="M23.029,27.029c-1.024,0-2.047-0.391-2.829-1.171l-8.485-8.485c-1.562-1.562-1.562-4.095,0-5.657    c1.562-1.562,4.095-1.562,5.657,0l8.485,8.485c1.562,1.562,1.562,4.095,0,5.657C25.076,26.638,24.053,27.029,23.029,27.029z"/></g></g></svg>