<?xml version="1.0" ?><!DOCTYPE svg  PUBLIC '-//W3C//DTD SVG 1.1//EN'  'http://www.w3.org/Graphics/SVG/1.1/DTD/svg11.dtd'><svg enable-background="new 0 0 128 128" height="35px" id="Layer_1" version="1.1" viewBox="0 0 128 128" width="35px" xml:space="preserve" xmlns="http://www.w3.org/2000/svg" xmlns:xlink="http://www.w3.org/1999/xlink"><path d="M66.799,90.508c-1.579-1.547-4.112-1.52-5.656,0.059l-23.146,23.631V4c0-2.209-1.791-4-4-4s-4,1.791-4,4v110.199  L6.858,90.566c-1.544-1.577-4.077-1.604-5.656-0.06c-1.579,1.546-1.605,4.078-0.06,5.657l29.995,30.635  c0.752,0.768,1.782,1.201,2.857,1.201c0,0,0,0,0,0c1.075,0,2.105-0.433,2.857-1.201l30.005-30.635  C68.403,94.586,68.377,92.054,66.799,90.508z"/><g enable-background="new    "><g><path d="M80.395,44.104L98.598,3.5c0.979-2.17,2.729-3.5,5.18-3.5h0.422c2.449,0,4.131,1.33,5.109,3.5l18.201,40.604    c0.35,0.63,0.49,1.26,0.49,1.82c0,2.311-1.75,4.13-4.061,4.13c-2.03,0-3.432-1.189-4.201-3.01l-3.99-9.171H91.945l-4.131,9.451    c-0.699,1.75-2.17,2.729-3.989,2.729c-2.24,0-3.99-1.75-3.99-3.99C79.835,45.435,80.045,44.805,80.395,44.104z M112.458,30.243    l-8.61-19.812l-8.611,19.812H112.458z"/></g></g><g enable-background="new    "><g><path d="M83.51,124.221v-0.211c0-1.471,0.561-2.801,1.61-3.99l27.583-33.394H88.131c-2.031,0-3.781-1.681-3.781-3.78    c0-2.101,1.75-3.851,3.781-3.851h32.203c2.1,0,3.85,1.75,3.85,3.78v0.209c0,1.471-0.56,2.729-1.539,3.99L94.99,120.369h25.482    c2.102,0,3.852,1.75,3.852,3.852c0,2.1-1.75,3.779-3.852,3.779H87.359C85.33,128,83.51,126.25,83.51,124.221z"/></g></g></svg>