<?xml version="1.0" ?><!DOCTYPE svg  PUBLIC '-//W3C//DTD SVG 1.1//EN'  'http://www.w3.org/Graphics/SVG/1.1/DTD/svg11.dtd'><svg enable-background="new 0 0 128 128" height="40px" id="Layer_1" version="1.1" viewBox="0 0 128 128" width="40px" xml:space="preserve" xmlns="http://www.w3.org/2000/svg" xmlns:xlink="http://www.w3.org/1999/xlink"><g><path d="M116,32H12C5.383,32,0,37.383,0,44v40c0,6.617,5.383,12,12,12h104c6.617,0,12-5.383,12-12V44C128,37.383,122.617,32,116,32   z M120,84c0,2.206-1.794,4-4,4H12c-2.206,0-4-1.794-4-4V44c0-2.206,1.794-4,4-4h104c2.206,0,4,1.794,4,4V84z"/><path d="M35.141,58.5c-0.551-0.957-1.776-1.285-2.732-0.732l-4.795,2.768V55c0-1.104-0.896-2-2-2s-2,0.896-2,2v5.536l-4.795-2.768   c-0.957-0.553-2.181-0.225-2.732,0.732c-0.552,0.957-0.225,2.18,0.732,2.732L21.614,64l-4.794,2.768   c-0.957,0.553-1.284,1.775-0.732,2.732c0.37,0.642,1.042,1,1.734,1c0.339,0,0.683-0.086,0.998-0.268l4.794-2.768V73   c0,1.104,0.896,2,2,2s2-0.896,2-2v-5.536l4.795,2.769c0.315,0.182,0.659,0.268,0.998,0.268c0.691,0,1.364-0.358,1.734-1   c0.552-0.957,0.225-2.18-0.732-2.732L29.615,64l4.794-2.768C35.366,60.68,35.693,59.457,35.141,58.5z"/><path d="M60.73,58.5c-0.552-0.957-1.775-1.285-2.732-0.732l-4.794,2.768V55c0-1.104-0.896-2-2-2s-2,0.896-2,2v5.536l-4.795-2.768   c-0.956-0.553-2.181-0.225-2.732,0.732c-0.552,0.957-0.225,2.18,0.732,2.732L47.203,64l-4.794,2.768   c-0.957,0.553-1.284,1.775-0.732,2.732c0.37,0.642,1.042,1,1.734,1c0.339,0,0.683-0.086,0.998-0.268l4.795-2.769V73   c0,1.104,0.896,2,2,2s2-0.896,2-2v-5.535l4.794,2.768c0.315,0.182,0.659,0.268,0.998,0.268c0.691,0,1.364-0.358,1.734-1   c0.552-0.957,0.225-2.18-0.732-2.732L55.204,64l4.794-2.768C60.955,60.68,61.282,59.457,60.73,58.5z"/><path d="M86.321,58.5c-0.553-0.957-1.774-1.287-2.732-0.732l-4.795,2.768V55c0-1.104-0.896-2-2-2s-2,0.896-2,2v5.537l-4.797-2.769   c-0.96-0.555-2.18-0.225-2.732,0.732c-0.552,0.957-0.224,2.18,0.732,2.732L72.792,64l-4.795,2.768   c-0.956,0.553-1.284,1.775-0.732,2.732c0.371,0.642,1.043,1,1.734,1c0.339,0,0.683-0.086,0.998-0.268l4.797-2.77V73   c0,1.104,0.896,2,2,2s2-0.896,2-2v-5.535l4.795,2.768c0.315,0.182,0.659,0.268,0.998,0.268c0.691,0,1.363-0.358,1.734-1   c0.552-0.957,0.224-2.18-0.732-2.732L80.794,64l4.795-2.768C86.545,60.68,86.873,59.457,86.321,58.5z"/><path d="M111.913,58.5c-0.554-0.957-1.774-1.287-2.732-0.732l-4.795,2.768V55c0-1.104-0.896-2-2-2s-2,0.896-2,2v5.537l-4.797-2.769   c-0.959-0.555-2.18-0.225-2.732,0.732c-0.552,0.957-0.224,2.18,0.732,2.732L98.384,64l-4.795,2.768   c-0.956,0.553-1.284,1.775-0.732,2.732c0.371,0.642,1.043,1,1.734,1c0.339,0,0.683-0.086,0.998-0.268l4.797-2.77V73   c0,1.104,0.896,2,2,2s2-0.896,2-2v-5.535l4.795,2.768c0.315,0.182,0.659,0.268,0.998,0.268c0.691,0,1.363-0.358,1.734-1   c0.552-0.957,0.224-2.18-0.732-2.732L106.386,64l4.795-2.768C112.137,60.68,112.465,59.457,111.913,58.5z"/></g></svg>