<?xml version="1.0" ?><!DOCTYPE svg  PUBLIC '-//W3C//DTD SVG 1.1//EN'  'http://www.w3.org/Graphics/SVG/1.1/DTD/svg11.dtd'><svg enable-background="new 0 0 128 128" height="35px" id="Layer_1" version="1.1" viewBox="0 0 128 128" width="35px" xml:space="preserve" xmlns="http://www.w3.org/2000/svg" xmlns:xlink="http://www.w3.org/1999/xlink"><g><path d="M54.49,41.984l-1.889,11.009c-0.196,1.146,0.484,1.64,1.512,1.101L64,48.895l9.891,5.199   c1.027,0.539,1.707,0.045,1.51-1.101l-1.887-11.009l7.994-7.798c0.832-0.81,0.573-1.609-0.568-1.778l-11.059-1.607l-4.943-10.017   c-0.515-1.043-1.354-1.043-1.872,0l-4.943,10.017l-11.058,1.607c-1.145,0.169-1.403,0.968-0.572,1.778L54.49,41.984z"/><path d="M119.384,15.383C119.08,13.436,117.402,12,115.432,12H99.999V7.497c0-4.134-3.39-7.497-7.556-7.497H35.558   c-4.167,0-7.556,3.363-7.556,7.497V12H12.568c-1.971,0-3.648,1.436-3.952,3.383C8.49,16.19,5.625,35.279,13.424,47.784   C19.972,58.28,27.422,62.162,30.46,63.382c4.063,10.259,12.833,18.206,23.684,21.254c0.006,5.888-0.893,13.929-4.728,18.054   c-4.182,4.496-7.604,4.904-10.622,5.267c-2.037,0.243-4.143,0.494-5.869,2.075c-3.032,2.777-4.407,9.154-4.783,11.219   c-0.366,1.654-0.003,3.332,1.007,4.629C30.2,127.227,31.822,128,33.6,128h60.8c1.776,0,3.397-0.771,4.447-2.118   c1.012-1.297,1.377-2.976,1.012-4.63c-0.375-2.062-1.75-8.439-4.784-11.223c-1.726-1.579-3.83-1.83-5.867-2.073   c-3.019-0.36-6.438-0.771-10.622-5.267c-3.838-4.125-4.734-12.168-4.729-18.053c10.852-3.051,19.619-10.996,23.684-21.255   c3.037-1.22,10.488-5.102,17.034-15.599C122.376,35.279,119.51,16.19,119.384,15.383z M20.212,43.55   c-4.516-7.239-4.431-18.095-4.038-23.55h11.829v30.524c0,0.726,0.029,1.445,0.073,2.16C25.714,50.772,22.917,47.886,20.212,43.55z    M88.259,115.898c0.519,0.062,1.188,0.143,1.567,0.224c0.458,0.655,1.046,2.178,1.529,3.878H36.643   c0.484-1.704,1.074-3.229,1.53-3.877c0.379-0.081,1.052-0.162,1.571-0.225c3.498-0.418,9.352-1.116,15.53-7.762   c5.523-5.939,6.779-15.436,6.887-22.184C62.771,85.984,63.384,86,64,86c0.618,0,1.232-0.016,1.842-0.046   c0.106,6.748,1.362,16.244,6.889,22.187C78.908,114.782,84.762,115.48,88.259,115.898z M92,50.524C92,65.674,79.439,78,64,78   c-15.438,0-27.998-12.326-27.998-27.476V8H92V50.524z M107.789,43.55c-2.717,4.354-5.512,7.243-7.864,9.15   c0.046-0.72,0.074-1.445,0.074-2.176V20h11.826C112.219,25.457,112.305,36.311,107.789,43.55z"/></g></svg>