<svg width="176" height="152" viewBox="0 0 88 76" fill="#bcd5ff" xmlns="http://www.w3.org/2000/svg">
  <path class="cls-1" d="M12.28,12.96c-.53.16-.83.71-.68,1.24l.84,2.88c.16.53.71.83,1.24.68s.83-.71.68-1.24l-.84-2.88c-.16-.53-.71-.83-1.24-.68ZM15.95,7.71l-.56-1.92c-.78-2.65-3.55-4.17-6.2-3.39s-4.17,3.55-3.39,6.2l.56,1.92c-1.59.47-2.5,2.13-2.03,3.72l1.97,6.72c.47,1.59,2.13,2.5,3.72,2.03l9.6-2.81c1.59-.47,2.5-2.13,2.03-3.72l-1.97-6.72c-.47-1.59-2.13-2.5-3.72-2.03ZM7.71,8.05c-.47-1.59.44-3.26,2.03-3.72s3.26.44,3.72,2.03l.56,1.92-5.76,1.69-.56-1.92ZM19.73,17.03c.16.53-.15,1.09-.68,1.24l-9.6,2.81c-.53.16-1.09-.15-1.24-.68l-1.97-6.72c-.16-.53.15-1.09.68-1.24l9.6-2.81c.53-.16,1.09.15,1.24.68l1.97,6.72Z"/>
</svg>