<?xml version="1.0" encoding="UTF-8"?>
<svg width="136" height="69" viewBox="0 0 136 69" xmlns="http://www.w3.org/2000/svg">
  <defs>
    <style>
      .cls-1 {
        fill: #74e2cd;
        stroke-width: 0px;
      }
    </style>
  </defs>
  <g id="Outline">
    <g id="Outline-2">
      <path class="cls-1" d="M27.22,49.38l9.77,2.12c1.62.35,3.22-.68,3.57-2.3l1.48-6.84c.33-1.47-.47-2.96-1.89-3.48.27-2.78-1.53-5.34-4.24-6.03-1.1-.24-2.25-.11-3.26.38-.52.19-.79.76-.6,1.28s.76.79,1.28.6c.06-.02.11-.05.16-.07.63-.29,1.33-.37,2-.23,1.63.45,2.74,1.96,2.67,3.65l-8.19-1.77c-1.62-.35-3.22.68-3.57,2.3l-1.48,6.84c-.35,1.62.68,3.22,2.3,3.57ZM28.35,39.4c.12-.54.65-.88,1.19-.77l9.77,2.12c.54.12.88.65.77,1.19l-1.48,6.84c-.12.54-.65.88-1.19.77l-9.77-2.12c-.54-.12-.88-.65-.77-1.19l1.48-6.84Z"/>
      <path class="cls-1" d="M32.95,46.53c.54.12,1.07-.23,1.19-.77l.63-2.93c.12-.54-.23-1.07-.77-1.19s-1.07.23-1.19.77l-.63,2.93c-.12.54.23,1.07.77,1.19Z"/>
      <path class="cls-1" d="M20.11,39.66c-1.64,7.56,3.16,15.01,10.72,16.64s15.01-3.16,16.64-10.72-3.16-15.01-10.72-16.64-15.01,3.16-16.64,10.72ZM36.33,30.89c6.48,1.4,10.59,7.79,9.19,14.27-1.4,6.48-7.79,10.59-14.27,9.19s-10.59-7.79-9.19-14.27,7.79-10.59,14.27-9.19Z"/>
      <path class="cls-1" d="M62.2,20.12l-1.95-.42,1.06-4.89c.12-.54-.23-1.07-.77-1.19l-5.86-1.27,1.06-4.89c.12-.54-.23-1.07-.77-1.19L13.91-2.61c-.54-.12-1.07.23-1.19.77l-2.33,10.75-.31-.07c-2.09-.36-4.08,1.04-4.44,3.13L-2.8,50.99c-.54,2.09.71,4.22,2.79,4.78l51.48,11.14c2.1.31,4.05-1.13,4.37-3.23l8.66-39.99c.35-1.62-.68-3.22-2.3-3.57ZM61.77,22.07c.54.12.88.65.77,1.19l-1.06,4.89-2.93-.63,1.27-5.86,1.95.42ZM56.59,27.09l-20.17-4.37c-.21-.05-.39-.17-.51-.35l-5.77-8.41c-.41-.59-1.03-1.01-1.73-1.16l-9.22-1.99.85-3.91,39.09,8.46-2.54,11.73ZM-.85,51.41L7.6,12.39c.14-1.01,1.06-1.72,2.07-1.6l.31.07L1.3,50.93c-.12.54.23,1.07.77,1.19l2.93.63c-.14.68-.11,1.39.08,2.06l-4.66-1.01c-1.01-.32-1.57-1.39-1.26-2.4ZM53.88,63.26c-.11,1-.99,1.75-1.99,1.7l-43.81-9.48c-.94-.37-1.43-1.41-1.11-2.37l3.58-16.54c.12-.54-.23-1.07-.77-1.19s-1.07.23-1.19.77l-3.17,14.66-1.95-.42L14.47-.44l39.09,8.46-.85,3.91L19.48,4.74c-.54-.12-1.07.23-1.19.77l-1.07,4.95c-1.87.02-3.45,1.38-3.77,3.22l-3.17,14.66c-.12.54.23,1.07.77,1.19s1.07-.23,1.19-.77l3.17-14.66c.11-.96.95-1.68,1.92-1.63l10.65,2.31c.21.05.39.17.51.35l5.77,8.41c.41.6,1.03,1.02,1.73,1.17l25.06,5.42-7.17,33.14Z"/>
      <path class="cls-1" d="M35.6,15.38l19.55,4.23c.54.12,1.07-.23,1.19-.77s-.23-1.07-.77-1.19l-19.55-4.23c-.54-.12-1.07.23-1.19.77s.23,1.07.77,1.19Z"/>
      <path class="cls-1" d="M54.72,21.57l-14.66-3.17c-.54-.12-1.07.23-1.19.77s.23,1.07.77,1.19l14.66,3.17c.54.12,1.07-.23,1.19-.77s-.23-1.07-.77-1.19Z"/>
      <circle class="cls-1" cx="10.42" cy="32.44" r="1"/>
    </g>
  </g>
</svg>